<svg id="Layer_1" data-name="Layer 1" xmlns="http://www.w3.org/2000/svg" viewBox="0 0 1020.84 484.39"><defs><style>.cls-1,.cls-2,.cls-6{fill:#fff;}.cls-1{opacity:0.8;}.cls-3{fill:#7c7ace;}.cls-4,.cls-5{fill:#56af83;}.cls-4{stroke:#fb0aff;stroke-miterlimit:10;}.cls-6{font-size:79.6px;font-family:ArialNarrow-Bold, Arial;font-weight:700;letter-spacing:0.2em;}</style></defs><title>logo-white</title><path class="cls-1" d="M1020.21,46.91,415,47.82a3.41,3.41,0,0,0-3.4,3.41V262a3.4,3.4,0,0,0,3.41,3.41l605.19-1a3.41,3.41,0,0,0,3.41-3.41V50.32A3.41,3.41,0,0,0,1020.21,46.91Z" transform="translate(-3.16 -46.91)"/><path class="cls-1" d="M805.81,358.85c10.22.13,64.3.46,64.3.46l-42.55,39.75-64.3-.46c-19.86-6-39.19-38.65-39.19-38.65l43-49.21,23.67.39Z" transform="translate(-3.16 -46.91)"/><path class="cls-2" d="M131.44,175,80.85,348.34s-61.55.08-74.27.12a3.4,3.4,0,0,1-3.42-3.41V206.64a3.4,3.4,0,0,1,2.65-3.32Z" transform="translate(-3.16 -46.91)"/><path class="cls-1" d="M1019.83,277.72a3.28,3.28,0,0,1,3.41,3.1l.37,57c.43,5.71-4.68,10.39-11,10.39H795.46l-4.7-37-29.15.2-29.74,36.84H483.1l-.39-33.42-31.11.2-.2,33.22H421.91l-22.72-47.92.24-22.5Z" transform="translate(-3.16 -46.91)"/><path class="cls-1" d="M478.18,398.62H388.73a30,30,0,0,1-30-30V345.81h77.84Z" transform="translate(-3.16 -46.91)"/><path class="cls-2" d="M499.2,47.7c17.09,1.49,31.76,7.78,42.85,21.37C555.38,85.42,559,104.65,558.28,125c-.76,22.77-8.38,42.57-27.09,56.77-3.08,2.33-2.86,4.1-1.66,7,6,14.32,19.79,47.78,19.79,47.78s40.53-159.57,48.5-186.63A3.36,3.36,0,0,1,601,47.45c10.88-.19,53.69-.06,64.76,0A3.41,3.41,0,0,1,669,50L715.5,230.41s.93-120,1-179.65a3.38,3.38,0,0,1,3.39-3.39l47,0A3.38,3.38,0,0,1,770,49.29c5,10.56,29.28,61.39,37.35,78.33,2,4.11,4.89,10.2,7.56,15.77a3.41,3.41,0,0,0,6.48-1.48c0-20.31-.29-76.81-.37-91.29a3.41,3.41,0,0,1,3.41-3.42l47.68-.07a3.42,3.42,0,0,1,3.42,3.41c0,17.26,0,141.17,0,141.17s32,.09,43.88-.07c3.52,0,4.83.88,5.17,4.68,1.46,16.38,12,25.15,28.3,24,9.12-.64,15.74-5.94,17.74-14.18,1.91-7.89-1.65-15.28-9.66-19.83a53.18,53.18,0,0,0-11.53-4.7c-11.79-3.41-23.7-6.54-35-11.45-14.59-6.34-25.86-16.15-32.31-31.06-4.26-9.85-4.86-20.16-4.31-30.61,1.22-23.21,11.48-41.06,31.71-53,7.26-4.28,15.18-6.36,23.33-7.87l34.72,0c33.88,4.19,55.74,31.44,56.09,63.39,0,3.66-1.74,3.78-4.44,3.77-12.12,0-26.94-.2-39.05.07-4.81.11-7.34-.69-8.24-6.23a18.88,18.88,0,0,0-15.56-15.38c-8-1.34-16.06-.77-21.81,6.37-7.64,9.48-3.15,22.22,9.33,27.4,13.48,5.59,28.07,7.79,41.39,13.78,19.61,8.81,35,23.21,38.38,45.45v28c-2.59,21.26-21.44,45.1-40.23,50.34l-63.33.1c-22.56-7.49-38-26.64-44.76-48.59l0,45.26a3.41,3.41,0,0,1-3.4,3.41c-8.74,0-32.16.09-44.81.08a3.39,3.39,0,0,1-3-1.86c-5.86-11.54-36.86-73.7-46.93-93.79a3.4,3.4,0,0,0-6.45,1.53l0,90.79a3.4,3.4,0,0,1-3.41,3.41l-96.19.16a3.4,3.4,0,0,1-3.33-2.68c-1.49-6.69-5.37-24.23-7.24-32.62-.83-3.76-2.29-5.72-8-4.92l-38.57.05c-5.43-.61-7.17.23-8.09,4.49-1.93,8.86-6.39,26.61-8.07,33.23a3.4,3.4,0,0,1-3.3,2.57l-85.81.13a3.4,3.4,0,0,1-3.17-2.14c-3.81-9.52-19.34-48.29-25.91-65-2.45-7.86-15.69-3.11-15.51,2.95,0,0,.16,50.07.29,60.85a3.4,3.4,0,0,1-3.4,3.45l-46,.05a3.4,3.4,0,0,1-3.43-3.4c0-25.93,0-190.67,0-210.81A3.41,3.41,0,0,1,415,47.8Zm-35.12,95.16a3.4,3.4,0,0,0,3.29,3.39l11.62.4c16.46.56,22.46-7.89,24.32-20.27,2-13-1.81-28.79-19.39-30.89,0,0-11.88-.26-16.61-.14A3.4,3.4,0,0,0,464,98.77C464,103.43,464.06,132.9,464.08,142.86Zm165.68-20.47-12.38,52.8a3.41,3.41,0,0,0,3.32,4.19h24.56a3.41,3.41,0,0,0,3.32-4.18L636.41,122.4A3.41,3.41,0,0,0,629.76,122.39Z" transform="translate(-3.16 -46.91)"/><path class="cls-2" d="M135.4,169.87h0a3.4,3.4,0,0,0,3.19,4.59h81.56a3.34,3.34,0,0,0,3.14-2.17l0-.07-.58,2.24L81,207l-77.8-.66a3.35,3.35,0,0,1,2.65-3.05L131.44,175a4.23,4.23,0,0,0,2.91-2.26Z" transform="translate(-3.16 -46.91)"/><path class="cls-2" d="M756.07,335.75c0,16.18,0,48.86-.06,59.46a3.4,3.4,0,0,1-3.42,3.4c-8.35,0-29.62-.07-35.84,0a3.41,3.41,0,0,1-3.43-3.39l-.63-117.45H755s0,13.87.5,21.51c1.78-9.85,15.3-21.51,15.3-21.51h22.88v24c8.35-11.54,19.75-20,33.11-24,.36-.1,40.6,0,40.6,0,14.71,5.48,27.17,17.09,32.76,31.67A73.51,73.51,0,0,1,905,337.73c-.24,10.32,0,10.32-10.08,10.33-20.83,0-41.67.09-62.5-.06-4.15,0-5.51,1.35-4.62,5.33,1.81,8,6,14.24,14.35,15.83,6.62.77,16.85,1.33,22.49-6.76,1.46-2.09,2.91-3.12,5.5-3.09q15.33.19,30.68.05c3.41,0,4.1.95,3.35,4.37-2.89,13-19.66,31.72-36.79,34.89l-39.79.44c-19.85-6-33.45-18.42-39.18-38.64a76.57,76.57,0,0,1-.13-42.42c1.07-3.78.24-4.79-3.51-5.54C768.43,309.22,757.31,318.11,756.07,335.75ZM851,324c3.41,0,6.82.06,10.23.09,4,0,4.55-1.94,3.32-5.53a17.87,17.87,0,0,0-18.15-12.54,19.75,19.75,0,0,0-18.17,13.77c-.89,2.93-.28,4.3,3,4.25C837.76,324,844.36,324.1,851,324Z" transform="translate(-3.16 -46.91)"/><path class="cls-1" d="M284.34,285.56c.11.25,0-150.4,0-175.19a3.41,3.41,0,0,0-3.42-3.4l-107.85.11V76.54c0-5,0-5,7-7.06C182.6,68.73,250,48.21,250,48.21l-.11,45.3a3.41,3.41,0,0,0,3.41,3.41l41.19,0a3.38,3.38,0,0,1,3.39,3.38c0,51-.29,153.1-.35,173A3.4,3.4,0,0,0,301,276.7l48.3-.08a3.41,3.41,0,0,0,3.41-3.41c0-22.95-.22-154.92-.23-172.9a3.4,3.4,0,0,1,3.39-3.41c9-.05,33.9-.2,45.26-.23l.29,188.89Z" transform="translate(-3.16 -46.91)"/><path class="cls-2" d="M504.32,277.75h48.1l18.25,63.5a3.41,3.41,0,0,0,6.55,0l18.56-63.51h46.94L603.94,396.26a3.41,3.41,0,0,1-3.26,2.35l-54.42-.22A3.4,3.4,0,0,1,543,396Z" transform="translate(-3.16 -46.91)"/><path class="cls-1" d="M175.83,286l-34,30.23-.07,48.56,34.09,34.08s-84.43.06-117.11,0c-15.33,0-24.87-9.62-25.17-25.12l.12-25.87,93.22.24a3.41,3.41,0,0,0,3.42-3.39l.34-58.23Z" transform="translate(-3.16 -46.91)"/><path class="cls-2" d="M699.3,398.62h-36a3.42,3.42,0,0,1-3.41-3.39l-.6-117.48,43.47.06v117.4A3.42,3.42,0,0,1,699.3,398.62Z" transform="translate(-3.16 -46.91)"/><path class="cls-1" d="M305.11,298.66l-.25,47.15H284.47s-.08-39.95-.13-60.26l13.51,0S303,294.12,305.11,298.66Z" transform="translate(-3.16 -46.91)"/><path class="cls-2" d="M242.94,117.46l-88.22-.14c2.76-10.15,18.37-10.24,18.37-10.24l73.63-.07S244.18,114.15,242.94,117.46Z" transform="translate(-3.16 -46.91)"/><path class="cls-3" d="M986.68,265.18" transform="translate(-3.16 -46.91)"/><path class="cls-3" d="M134,292.34l-.94,1.25Z" transform="translate(-3.16 -46.91)"/><path class="cls-2" d="M355.86,96.88l45.22-.21c0-11.08-.55-35.59.05-44.84a3.39,3.39,0,0,0-3.39-3.62H250c-.05,11.33-.09,36.22-.1,45.32A3.4,3.4,0,0,0,253.31,97l41.19-.08a3.38,3.38,0,0,1,3.38,3.38c0,48-.23,152.82-.28,173A3.41,3.41,0,0,0,301,276.7h48.23a3.41,3.41,0,0,0,3.41-3.41l-.19-173A3.42,3.42,0,0,1,355.86,96.88Z" transform="translate(-3.16 -46.91)"/><path class="cls-2" d="M305.11,298.66l-7.26-13.08,105.56,0a3.41,3.41,0,0,1,2.9,1.61l7.4,11.88Z" transform="translate(-3.16 -46.91)"/><path class="cls-1" d="M223.37,172.2c3-8.61,14-39.55,19.57-54.74-29.47,0-58.74-.13-88.21-.18-5,13.72-15.28,41.6-19.33,52.59a3.41,3.41,0,0,0,3.22,4.59h81.53A3.4,3.4,0,0,0,223.37,172.2Z" transform="translate(-3.16 -46.91)"/><path class="cls-2" d="M220.26,279.82a3.41,3.41,0,0,0-2.41-1c-9.11-.08-59.33-.48-68.36-.09a3.43,3.43,0,0,0-2.35,1.08l-15.35,16.45a3.44,3.44,0,0,0-.92,2.29l-.53,46.17a3.41,3.41,0,0,1-3.41,3.38H80.85s.06-96.85.11-141c16.5-3.78,132-30.48,132-30.48l8-2.19a3.39,3.39,0,0,0,2.31-2.14L246.72,107l34.16,0a3.41,3.41,0,0,1,3.42,3.4l.17,235.45-43.38.16a3.42,3.42,0,0,1-3.43-3.4l-.13-43.64a3.41,3.41,0,0,0-1-2.36Z" transform="translate(-3.16 -46.91)"/><path class="cls-1" d="M197.85,364.93a3.37,3.37,0,0,1-3.51,3.48c-4.11-.11-13-.21-17.89-.26a3.41,3.41,0,0,1-3.37-3.41l-.06-44.2a3.42,3.42,0,0,1,3.42-3.42l16.31.05c3.79-.33,5.17.77,5.1,4.21Z" transform="translate(-3.16 -46.91)"/><path class="cls-2" d="M175.83,286H194.5a34.11,34.11,0,0,1,34.09,34.12v44.64a34.11,34.11,0,0,1-34.13,34.12H175.84a34.12,34.12,0,0,1-34.09-34.08c0-14.15,0-30.54,0-44.69A34.08,34.08,0,0,1,175.83,286Zm22,34.58a3.4,3.4,0,0,0-3.42-3.41c-5.11,0-14.51,0-18,0a3.42,3.42,0,0,0-3.43,3.58l.06,44a3.41,3.41,0,0,0,3.41,3.4h17.94a3.41,3.41,0,0,0,3.41-3.41Z" transform="translate(-3.16 -46.91)"/><path class="cls-1" d="M479.93,364.57a3.39,3.39,0,0,1-3.51,3.49c-4.12-.12-17.9-.27-17.9-.27a3.42,3.42,0,0,1-3.37-3.41l0-44.2a3.42,3.42,0,0,1,3.42-3.42l16.31.05c3.78-.32,5.16.77,5.09,4.21Z" transform="translate(-3.16 -46.91)"/><path class="cls-2" d="M457.91,285.74h18.67a34.11,34.11,0,0,1,34.09,34.11v44.65a34.11,34.11,0,0,1-34.13,34.11H457.92a34.1,34.1,0,0,1-34.09-34.08c0-14.15,0-30.54,0-44.69A34.11,34.11,0,0,1,457.91,285.74Zm22,34.59a3.42,3.42,0,0,0-3.42-3.42c-5.12,0-14.52,0-18,0a3.4,3.4,0,0,0-3.43,3.57l.06,44a3.41,3.41,0,0,0,3.41,3.41h17.94a3.41,3.41,0,0,0,3.41-3.41Z" transform="translate(-3.16 -46.91)"/><path class="cls-2" d="M423.82,345.82h-119l.25-47.15,127.3.37Z" transform="translate(-3.16 -46.91)"/><path class="cls-4" d="M392.84,398.62" transform="translate(-3.16 -46.91)"/><path class="cls-5" d="M985.48,398.74" transform="translate(-3.16 -46.91)"/><path class="cls-2" d="M985.48,398.74l35.11-.1a3.42,3.42,0,0,0,3-5.07c-7-12.5-21.27-38.82-27.41-50.1a11.36,11.36,0,0,1-.08-10.7c4.7-8.94,20.42-38.22,26.75-50a3.4,3.4,0,0,0-3-5l-38.13,0-14,30a3.42,3.42,0,0,1-6.17,0l-13.07-30H905.05s21.72,42.77,28.63,55.28a11.38,11.38,0,0,1-.28,11.46c-1.14,1.85-20.68,35-28.19,49.21a3.4,3.4,0,0,0,3,5l35.42.06a3.4,3.4,0,0,0,3.17-2.13c4.13-10,9.59-19.4,14.65-29.73a3.41,3.41,0,0,1,6.1,0c5.3,10.32,10.53,19.84,14.8,29.8a3.43,3.43,0,0,0,3.12,2.08" transform="translate(-3.16 -46.91)"/><text class="cls-6" transform="translate(85.1 440.02)">Moving Intelligence</text></svg>