<svg id="Layer_1" data-name="Layer 1" xmlns="http://www.w3.org/2000/svg" viewBox="0 0 1024 707.49"><defs><style>.cls-1{opacity:0.3;}.cls-2{fill:#7c7ace;}.cls-3{fill:#56af83;stroke:#fb0aff;stroke-miterlimit:10;}</style></defs><title>icon-black</title><path class="cls-1" d="M1024,724.39H974.48l1.17-49.65H908l-12.13,49.65H786.26V627.26l17.21,3V600H1021a3,3,0,0,1,3,3Z" transform="translate(0 -145.62)"/><path class="cls-1" d="M258.84,401.36,156.76,751.18s-124.18.17-149.86.25A6.87,6.87,0,0,1,0,744.55V465.3a6.89,6.89,0,0,1,5.36-6.72Z" transform="translate(0 -145.62)"/><path class="cls-1" d="M958.44,852.64h-211a30,30,0,0,1-30-30V746.09H872.61Z" transform="translate(0 -145.62)"/><path d="M266.83,391.1l-.08.25a6.89,6.89,0,0,0,6.56,9H437.83a6.74,6.74,0,0,0,6.24-4.18l.13-.33L443,400.36l-286,65.7L0,464.75a6.8,6.8,0,0,1,5.36-6.17l253.48-57.22c2.3-.5,5.06-2.33,5.87-4.54Z" transform="translate(0 -145.62)"/><path class="cls-1" d="M567.34,624.52c.21.5.06-303.46,0-353.47a6.86,6.86,0,0,0-6.89-6.86l-217.61.23V202.78c-.09-10-.09-10,14.08-14.23C362.06,187,498,145.62,498,145.62l-.21,91.4a6.87,6.87,0,0,0,6.87,6.89c17.15,0,61.93-.06,83.12-.1a6.82,6.82,0,0,1,6.84,6.82c0,102.93-.59,308.91-.71,349.13a6.86,6.86,0,0,0,6.89,6.88l97.47-.16a6.87,6.87,0,0,0,6.87-6.87c-.07-46.32-.45-312.58-.45-348.87a6.86,6.86,0,0,1,6.83-6.87c18.18-.11,68.39-.4,91.31-.46l.6,381.11Z" transform="translate(0 -145.62)"/><path class="cls-1" d="M348.4,625.32l-68.62,61-.14,98,68.79,68.76s-170.36.13-236.29,0c-30.94-.08-50.2-19.41-50.79-50.69l.25-52.2,188.07.48a6.88,6.88,0,0,0,6.9-6.84l.7-117.48Z" transform="translate(0 -145.62)"/><path class="cls-1" d="M609.24,651l-.5,95.13-41.14,0s-.17-80.6-.26-121.58l27.25,0S605,641.79,609.24,651Z" transform="translate(0 -145.62)"/><path d="M483.81,285.35l-178-.28c5.56-20.48,37.06-20.65,37.06-20.65l148.57-.16S486.31,278.67,483.81,285.35Z" transform="translate(0 -145.62)"/><path class="cls-2" d="M264.05,638.21l-1.88,2.51C262.8,639.89,263.42,639.05,264.05,638.21Z" transform="translate(0 -145.62)"/><path d="M711.63,243.83l91.24-.42c0-22.37-1.1-71.82.12-90.47a6.86,6.86,0,0,0-6.85-7.32H498c-.09,22.87-.17,73.1-.2,91.46a6.85,6.85,0,0,0,6.88,6.88l83.11-.15a6.8,6.8,0,0,1,6.82,6.81c.05,96.88-.46,308.36-.56,349.15a6.87,6.87,0,0,0,6.89,6.88h97.3a6.88,6.88,0,0,0,6.89-6.89l-.39-349A6.89,6.89,0,0,1,711.63,243.83Z" transform="translate(0 -145.62)"/><path d="M609.24,651l-14.65-26.4,213,0a6.88,6.88,0,0,1,5.84,3.24l14.93,24Z" transform="translate(0 -145.62)"/><path class="cls-1" d="M444.32,395.79c6.16-17.37,28.33-79.79,39.49-110.44-59.46-.09-118.53-.26-178-.35-10.1,27.67-30.82,83.92-39,106.1a6.88,6.88,0,0,0,6.48,9.26H437.83A6.89,6.89,0,0,0,444.32,395.79Z" transform="translate(0 -145.62)"/><path d="M438.05,613a6.82,6.82,0,0,0-4.86-2.08c-18.4-.16-119.72-1-137.95-.18a6.88,6.88,0,0,0-4.73,2.18l-31,33.19a6.88,6.88,0,0,0-1.85,4.62l-1.08,93.16a6.88,6.88,0,0,1-6.88,6.8h-93s.13-195.4.22-284.58c33.29-7.62,266.4-61.48,266.4-61.48l16.16-4.42a6.85,6.85,0,0,0,4.66-4.31l47.24-131.59,68.92-.08a6.87,6.87,0,0,1,6.89,6.87l.35,475.05-87.53.32a6.88,6.88,0,0,1-6.91-6.86l-.26-88a6.87,6.87,0,0,0-1.95-4.75Z" transform="translate(0 -145.62)"/><path class="cls-1" d="M392.83,784.66a6.82,6.82,0,0,1-7.08,7c-8.3-.22-26.26-.43-36.1-.53a6.88,6.88,0,0,1-6.8-6.88l-.11-89.19a6.88,6.88,0,0,1,6.9-6.89l32.91.09c7.63-.65,10.42,1.57,10.28,8.51Z" transform="translate(0 -145.62)"/><path d="M348.4,625.32l37.68,0a68.82,68.82,0,0,1,68.78,68.82v90.09A68.83,68.83,0,0,1,386,853.08l-37.56,0a68.81,68.81,0,0,1-68.79-68.76c0-28.54-.05-61.61-.05-90.16A68.79,68.79,0,0,1,348.4,625.32Zm44.43,69.79a6.89,6.89,0,0,0-6.9-6.89c-10.32,0-29.29.09-36.27,0a6.86,6.86,0,0,0-6.92,7.21l.11,88.76a6.89,6.89,0,0,0,6.88,6.87h36.2a6.88,6.88,0,0,0,6.88-6.88Z" transform="translate(0 -145.62)"/><path class="cls-1" d="M962,783.94a6.81,6.81,0,0,1-7.07,7c-8.3-.22-36.1-.53-36.1-.53a6.88,6.88,0,0,1-6.8-6.88l-.12-89.19a6.89,6.89,0,0,1,6.9-6.89l32.91.09c7.63-.65,10.42,1.56,10.28,8.51Z" transform="translate(0 -145.62)"/><path d="M917.54,624.88l37.68,0A68.82,68.82,0,0,1,1024,693.73v90.08a68.83,68.83,0,0,1-68.87,68.83l-37.56,0a68.82,68.82,0,0,1-68.79-68.76c0-28.55,0-61.61,0-90.16A68.81,68.81,0,0,1,917.54,624.88ZM962,694.67a6.89,6.89,0,0,0-6.9-6.89c-10.32,0-29.29.09-36.27,0a6.87,6.87,0,0,0-6.92,7.21l.11,88.76a6.88,6.88,0,0,0,6.88,6.87h36.2a6.88,6.88,0,0,0,6.88-6.88Z" transform="translate(0 -145.62)"/><path d="M848.75,746.1l-240,0,.5-95.13,256.86.75Z" transform="translate(0 -145.62)"/><path class="cls-3" d="M786.26,852.64" transform="translate(0 -145.62)"/></svg>